<svg width="14" height="14" viewBox="0 0 14 14" fill="none" xmlns="http://www.w3.org/2000/svg">
<mask id="mask0_298_387" style="mask-type:alpha" maskUnits="userSpaceOnUse" x="0" y="0" width="14" height="14">
<rect width="14" height="14" fill="#D9D9D9"/>
</mask>
<g mask="url(#mask0_298_387)">
<path d="M3.41249 9.97533C3.90832 9.59616 4.46249 9.2972 5.07499 9.07845C5.68749 8.8597 6.32916 8.75033 6.99999 8.75033C7.67082 8.75033 8.31249 8.8597 8.92499 9.07845C9.53749 9.2972 10.0917 9.59616 10.5875 9.97533C10.9278 9.57672 11.1927 9.12463 11.3823 8.61908C11.5719 8.11352 11.6667 7.57394 11.6667 7.00033C11.6667 5.70727 11.2121 4.60623 10.3031 3.6972C9.39409 2.78817 8.29305 2.33366 6.99999 2.33366C5.70693 2.33366 4.60589 2.78817 3.69687 3.6972C2.78784 4.60623 2.33332 5.70727 2.33332 7.00033C2.33332 7.57394 2.42811 8.11352 2.6177 8.61908C2.80728 9.12463 3.07221 9.57672 3.41249 9.97533ZM6.99999 7.58366C6.42638 7.58366 5.9427 7.38678 5.54895 6.99303C5.1552 6.59928 4.95832 6.1156 4.95832 5.54199C4.95832 4.96838 5.1552 4.4847 5.54895 4.09095C5.9427 3.6972 6.42638 3.50033 6.99999 3.50033C7.5736 3.50033 8.05728 3.6972 8.45103 4.09095C8.84478 4.4847 9.04166 4.96838 9.04166 5.54199C9.04166 6.1156 8.84478 6.59928 8.45103 6.99303C8.05728 7.38678 7.5736 7.58366 6.99999 7.58366ZM6.99999 12.8337C6.19305 12.8337 5.43471 12.6805 4.72499 12.3743C4.01527 12.068 3.39791 11.6524 2.87291 11.1274C2.34791 10.6024 1.93228 9.98505 1.62603 9.27533C1.31978 8.5656 1.16666 7.80727 1.16666 7.00033C1.16666 6.19338 1.31978 5.43505 1.62603 4.72533C1.93228 4.0156 2.34791 3.39824 2.87291 2.87324C3.39791 2.34824 4.01527 1.93262 4.72499 1.62637C5.43471 1.32012 6.19305 1.16699 6.99999 1.16699C7.80693 1.16699 8.56527 1.32012 9.27499 1.62637C9.98471 1.93262 10.6021 2.34824 11.1271 2.87324C11.6521 3.39824 12.0677 4.0156 12.3739 4.72533C12.6802 5.43505 12.8333 6.19338 12.8333 7.00033C12.8333 7.80727 12.6802 8.5656 12.3739 9.27533C12.0677 9.98505 11.6521 10.6024 11.1271 11.1274C10.6021 11.6524 9.98471 12.068 9.27499 12.3743C8.56527 12.6805 7.80693 12.8337 6.99999 12.8337ZM6.99999 11.667C7.51527 11.667 8.00138 11.5916 8.45832 11.441C8.91527 11.2903 9.33332 11.0739 9.71249 10.792C9.33332 10.51 8.91527 10.2937 8.45832 10.143C8.00138 9.99234 7.51527 9.91699 6.99999 9.91699C6.48471 9.91699 5.9986 9.99234 5.54166 10.143C5.08471 10.2937 4.66666 10.51 4.28749 10.792C4.66666 11.0739 5.08471 11.2903 5.54166 11.441C5.9986 11.5916 6.48471 11.667 6.99999 11.667ZM6.99999 6.41699C7.25277 6.41699 7.4618 6.33435 7.62707 6.16908C7.79235 6.0038 7.87499 5.79477 7.87499 5.54199C7.87499 5.28921 7.79235 5.08019 7.62707 4.91491C7.4618 4.74963 7.25277 4.66699 6.99999 4.66699C6.74721 4.66699 6.53818 4.74963 6.37291 4.91491C6.20763 5.08019 6.12499 5.28921 6.12499 5.54199C6.12499 5.79477 6.20763 6.0038 6.37291 6.16908C6.53818 6.33435 6.74721 6.41699 6.99999 6.41699Z" fill="#1C1B1F"/>
</g>
</svg>
