<svg width="51" height="50" viewBox="0 0 51 50" fill="none" xmlns="http://www.w3.org/2000/svg">
<path fill-rule="evenodd" clip-rule="evenodd" d="M50.5 25C50.5 38.807 39.307 50 25.5 50C11.6929 50 0.5 38.807 0.5 25C0.5 11.1929 11.6929 0 25.5 0C39.307 0 50.5 11.1929 50.5 25ZM35.5758 17.4242C36.308 18.1564 36.308 19.3436 35.5758 20.0758L23.0758 32.5758C22.3435 33.308 21.1565 33.308 20.4242 32.5758L15.4242 27.5758C14.6919 26.8435 14.6919 25.6565 15.4242 24.9242C16.1564 24.192 17.3436 24.192 18.0758 24.9242L21.75 28.5982L27.337 23.0112L32.9242 17.4242C33.6565 16.6919 34.8435 16.6919 35.5758 17.4242Z" fill="#57BA89"/>
</svg>
