<svg width="14" height="14" viewBox="0 0 14 14" fill="none" xmlns="http://www.w3.org/2000/svg">
<mask id="mask0_282_3313" style="mask-type:alpha" maskUnits="userSpaceOnUse" x="0" y="0" width="14" height="14">
<rect width="14" height="14" fill="#D9D9D9"/>
</mask>
<g mask="url(#mask0_282_3313)">
<path d="M6.99998 11.666C6.53331 11.2966 6.02776 11.0098 5.48331 10.8056C4.93887 10.6014 4.37498 10.4993 3.79165 10.4993C3.38331 10.4993 2.98227 10.5528 2.58852 10.6598C2.19477 10.7667 1.81804 10.9174 1.45831 11.1118C1.25415 11.2188 1.05727 11.2139 0.867688 11.0973C0.678105 10.9806 0.583313 10.8105 0.583313 10.5868V3.55768C0.583313 3.45074 0.610049 3.34865 0.663521 3.25143C0.716994 3.15421 0.797202 3.08129 0.904146 3.03268C1.35137 2.79935 1.81804 2.62435 2.30415 2.50768C2.79026 2.39102 3.28609 2.33268 3.79165 2.33268C4.35554 2.33268 4.90727 2.4056 5.44686 2.55143C5.98644 2.69727 6.50415 2.91602 6.99998 3.20768V10.266C7.49581 9.9549 8.01595 9.72157 8.5604 9.56602C9.10484 9.41046 9.65415 9.33268 10.2083 9.33268C10.5583 9.33268 10.901 9.36185 11.2364 9.42018C11.5719 9.47852 11.9097 9.56602 12.25 9.68268V2.68268C12.3958 2.73129 12.5392 2.78234 12.6802 2.83581C12.8212 2.88928 12.9597 2.9549 13.0958 3.03268C13.2028 3.08129 13.283 3.15421 13.3364 3.25143C13.3899 3.34865 13.4166 3.45074 13.4166 3.55768V10.5868C13.4166 10.8105 13.3219 10.9806 13.1323 11.0973C12.9427 11.2139 12.7458 11.2188 12.5416 11.1118C12.1819 10.9174 11.8052 10.7667 11.4114 10.6598C11.0177 10.5528 10.6166 10.4993 10.2083 10.4993C9.62498 10.4993 9.06109 10.6014 8.51665 10.8056C7.9722 11.0098 7.46665 11.2966 6.99998 11.666ZM8.16665 8.74935V3.20768L11.0833 0.291016V6.12435L8.16665 8.74935ZM5.83331 9.69727V3.92227C5.51248 3.78615 5.17949 3.68164 4.83436 3.60872C4.48922 3.53581 4.14165 3.49935 3.79165 3.49935C3.43192 3.49935 3.08192 3.53338 2.74165 3.60143C2.40137 3.66949 2.07081 3.77157 1.74998 3.90768V9.69727C2.09026 9.57088 2.4281 9.47852 2.76352 9.42018C3.09894 9.36185 3.44165 9.33268 3.79165 9.33268C4.14165 9.33268 4.48436 9.36185 4.81977 9.42018C5.15519 9.47852 5.49304 9.57088 5.83331 9.69727Z" fill="#1C1B1F"/>
</g>
</svg>
