<svg width="15" height="15" viewBox="0 0 15 15" fill="none" xmlns="http://www.w3.org/2000/svg">
<path d="M7.5 4.375V13.125" stroke="#5EC4DA" stroke-width="1.66667" stroke-linecap="round" stroke-linejoin="round"/>
<path d="M1.875 11.25C1.70924 11.25 1.55027 11.1842 1.43306 11.0669C1.31585 10.9497 1.25 10.7908 1.25 10.625V2.5C1.25 2.33424 1.31585 2.17527 1.43306 2.05806C1.55027 1.94085 1.70924 1.875 1.875 1.875H5C5.66304 1.875 6.29893 2.13839 6.76777 2.60723C7.23661 3.07607 7.5 3.71196 7.5 4.375C7.5 3.71196 7.76339 3.07607 8.23223 2.60723C8.70108 2.13839 9.33696 1.875 10 1.875H13.125C13.2908 1.875 13.4497 1.94085 13.5669 2.05806C13.6842 2.17527 13.75 2.33424 13.75 2.5V10.625C13.75 10.7908 13.6842 10.9497 13.5669 11.0669C13.4497 11.1842 13.2908 11.25 13.125 11.25H9.375C8.87772 11.25 8.40081 11.4475 8.04918 11.7992C7.69755 12.1508 7.5 12.6277 7.5 13.125C7.5 12.6277 7.30246 12.1508 6.95083 11.7992C6.5992 11.4475 6.12228 11.25 5.625 11.25H1.875Z" stroke="#5EC4DA" stroke-width="1.66667" stroke-linecap="round" stroke-linejoin="round"/>
</svg>
