<svg width="8" height="7" viewBox="0 0 8 7" fill="none" xmlns="http://www.w3.org/2000/svg">
<path d="M1.375 3.5C1.375 4.01918 1.52895 4.52669 1.81739 4.95837C2.10583 5.39005 2.5158 5.7265 2.99546 5.92518C3.47511 6.12386 4.00291 6.17585 4.51211 6.07456C5.02131 5.97328 5.48904 5.72327 5.85616 5.35616C6.22327 4.98904 6.47328 4.52131 6.57456 4.01211C6.67585 3.50291 6.62386 2.97511 6.42518 2.49546C6.2265 2.0158 5.89005 1.60583 5.45837 1.31739C5.02669 1.02895 4.51918 0.875 4 0.875C3.26615 0.877761 2.56178 1.16411 2.03417 1.67417L1.375 2.33333" stroke="#7C716A" stroke-width="1.33333" stroke-linecap="round" stroke-linejoin="round"/>
<path d="M1.375 0.875V2.33333H2.83333" stroke="#7C716A" stroke-width="1.33333" stroke-linecap="round" stroke-linejoin="round"/>
</svg>
