<svg width="12" height="12" viewBox="0 0 12 12" fill="none" xmlns="http://www.w3.org/2000/svg">
<path d="M2.50002 8.91667H6.58335V7.75H2.50002V8.91667ZM8.33335 8.91667H9.50002V3.08333H8.33335V8.91667ZM2.50002 6.58333H6.58335V5.41667H2.50002V6.58333ZM2.50002 4.25H6.58335V3.08333H2.50002V4.25ZM1.33335 11.25C1.01252 11.25 0.737868 11.1358 0.509395 10.9073C0.280923 10.6788 0.166687 10.4042 0.166687 10.0833V1.91667C0.166687 1.59583 0.280923 1.32118 0.509395 1.09271C0.737868 0.864236 1.01252 0.75 1.33335 0.75H10.6667C10.9875 0.75 11.2622 0.864236 11.4906 1.09271C11.7191 1.32118 11.8334 1.59583 11.8334 1.91667V10.0833C11.8334 10.4042 11.7191 10.6788 11.4906 10.9073C11.2622 11.1358 10.9875 11.25 10.6667 11.25H1.33335ZM1.33335 10.0833H10.6667V1.91667H1.33335V10.0833Z" fill="#1C1B1F"/>
</svg>
