<svg width="12" height="12" viewBox="0 0 12 12" fill="none" xmlns="http://www.w3.org/2000/svg">
<path d="M4.25 11.25H1.91667C1.59583 11.25 1.32118 11.1358 1.09271 10.9073C0.864236 10.6788 0.75 10.4042 0.75 10.0833V6C0.75 5.27083 0.888542 4.58785 1.16563 3.95104C1.44271 3.31424 1.81701 2.76007 2.28854 2.28854C2.76007 1.81701 3.31424 1.44271 3.95104 1.16563C4.58785 0.888542 5.27083 0.75 6 0.75C6.72917 0.75 7.41215 0.888542 8.04896 1.16563C8.68576 1.44271 9.23993 1.81701 9.71146 2.28854C10.183 2.76007 10.5573 3.31424 10.8344 3.95104C11.1115 4.58785 11.25 5.27083 11.25 6V10.0833C11.25 10.4042 11.1358 10.6788 10.9073 10.9073C10.6788 11.1358 10.4042 11.25 10.0833 11.25H7.75V6.58333H10.0833V6C10.0833 4.8625 9.68715 3.89757 8.89479 3.10521C8.10243 2.31285 7.1375 1.91667 6 1.91667C4.8625 1.91667 3.89757 2.31285 3.10521 3.10521C2.31285 3.89757 1.91667 4.8625 1.91667 6V6.58333H4.25V11.25ZM3.08333 7.75H1.91667V10.0833H3.08333V7.75ZM8.91667 7.75V10.0833H10.0833V7.75H8.91667Z" fill="#1C1B1F"/>
</svg>
