<svg width="12" height="12" viewBox="0 0 12 12" fill="none" xmlns="http://www.w3.org/2000/svg">
<path d="M4.25 8.91667H7.75V7.75H5.41667V6.58333H7.75V5.41667H5.41667V4.25H7.75V3.08333H4.25V8.91667ZM1.91667 11.25C1.59583 11.25 1.32118 11.1358 1.09271 10.9073C0.864236 10.6788 0.75 10.4042 0.75 10.0833V1.91667C0.75 1.59583 0.864236 1.32118 1.09271 1.09271C1.32118 0.864236 1.59583 0.75 1.91667 0.75H10.0833C10.4042 0.75 10.6788 0.864236 10.9073 1.09271C11.1358 1.32118 11.25 1.59583 11.25 1.91667V10.0833C11.25 10.4042 11.1358 10.6788 10.9073 10.9073C10.6788 11.1358 10.4042 11.25 10.0833 11.25H1.91667ZM1.91667 10.0833H10.0833V1.91667H1.91667V10.0833Z" fill="#1C1B1F"/>
</svg>
