<svg width="24" height="14" viewBox="0 0 24 14" fill="none" xmlns="http://www.w3.org/2000/svg">
<path d="M23.5 5.46216H0.5V8.53804H23.5V5.46216Z" fill="#6D6D6D"/>
<path d="M9.45341 5.46216H8.64917V8.53804H9.45341V5.46216Z" fill="#6D6D6D"/>
<path d="M15.3515 5.46216H14.5472V8.53804H15.3515V5.46216Z" fill="#6D6D6D"/>
<path d="M4.22533 2.51392H3.56811C2.47462 2.51392 1.58813 3.40034 1.58813 4.49384V9.50669C1.58813 10.6002 2.47462 11.4866 3.56811 11.4866H4.22533V2.51392Z" fill="#6D6D6D"/>
<path d="M7.52794 11.9126C7.52794 13.006 6.64146 13.8925 5.54797 13.8925C4.45448 13.8925 3.56799 13.006 3.56799 11.9126V2.08759C3.56799 0.994094 4.45448 0.107666 5.54797 0.107666C6.64146 0.107666 7.52794 0.994094 7.52794 2.08759V11.9126Z" fill="#6D6D6D"/>
<path d="M19.7748 2.51392H20.4321C21.5256 2.51392 22.412 3.40034 22.412 4.49384V9.50669C22.412 10.6002 21.5256 11.4866 20.4321 11.4866H19.7748V2.51392Z" fill="#6D6D6D"/>
<path d="M16.4722 11.9126C16.4722 13.006 17.3587 13.8925 18.4522 13.8925C19.5457 13.8925 20.4322 13.006 20.4322 11.9126V2.08759C20.4322 0.994094 19.5457 0.107666 18.4522 0.107666C17.3587 0.107666 16.4722 0.994094 16.4722 2.08759V11.9126Z" fill="#6D6D6D"/>
</svg>
