<svg width="14" height="14" viewBox="0 0 14 14" fill="none" xmlns="http://www.w3.org/2000/svg">
<mask id="mask0_282_3369" style="mask-type:alpha" maskUnits="userSpaceOnUse" x="0" y="0" width="14" height="14">
<rect width="14" height="14" fill="#D9D9D9"/>
</mask>
<g mask="url(#mask0_282_3369)">
<path d="M6.99998 12.8327C6.67915 12.8327 6.40449 12.7184 6.17602 12.49C5.94755 12.2615 5.83331 11.9868 5.83331 11.666H8.16665C8.16665 11.9868 8.05241 12.2615 7.82394 12.49C7.59547 12.7184 7.32081 12.8327 6.99998 12.8327ZM2.33331 11.0827V9.91602H3.49998V5.83268C3.49998 5.02574 3.74304 4.30872 4.22915 3.68164C4.71526 3.05456 5.3472 2.64379 6.12498 2.44935V2.04102C6.12498 1.79796 6.21005 1.59136 6.38019 1.42122C6.55033 1.25109 6.75693 1.16602 6.99998 1.16602C7.24304 1.16602 7.44963 1.25109 7.61977 1.42122C7.78991 1.59136 7.87498 1.79796 7.87498 2.04102V2.2306C7.76804 2.44449 7.69026 2.66324 7.64165 2.88685C7.59304 3.11046 7.57359 3.33893 7.58331 3.57227C7.48609 3.55282 7.3913 3.53581 7.29894 3.52122C7.20658 3.50664 7.10693 3.49935 6.99998 3.49935C6.35831 3.49935 5.80901 3.72782 5.35206 4.18477C4.89512 4.64171 4.66665 5.19102 4.66665 5.83268V9.91602H9.33331V6.1681C9.50832 6.24588 9.69547 6.30664 9.89477 6.35039C10.0941 6.39414 10.2958 6.41602 10.5 6.41602V9.91602H11.6666V11.0827H2.33331ZM10.5 5.24935C10.0139 5.24935 9.60068 5.07921 9.2604 4.73893C8.92012 4.39865 8.74998 3.98546 8.74998 3.49935C8.74998 3.01324 8.92012 2.60004 9.2604 2.25977C9.60068 1.91949 10.0139 1.74935 10.5 1.74935C10.9861 1.74935 11.3993 1.91949 11.7396 2.25977C12.0798 2.60004 12.25 3.01324 12.25 3.49935C12.25 3.98546 12.0798 4.39865 11.7396 4.73893C11.3993 5.07921 10.9861 5.24935 10.5 5.24935Z" fill="#1C1B1F"/>
</g>
</svg>
