<svg width="45" height="46" viewBox="0 0 45 46" fill="none" xmlns="http://www.w3.org/2000/svg">
<rect y="0.5" width="45" height="45" rx="22.5" fill="#1BDD68"/>
<path d="M16.327 30V29H28.673V30H16.327ZM16.269 27.116L14.821 19.475C14.7877 19.4883 14.7503 19.4957 14.709 19.497C14.667 19.499 14.6293 19.5 14.596 19.5C14.282 19.5 14.021 19.3933 13.813 19.18C13.605 18.9667 13.5007 18.708 13.5 18.404C13.5 18.0887 13.6043 17.8207 13.813 17.6C14.021 17.38 14.2823 17.27 14.597 17.27C14.9117 17.27 15.1793 17.38 15.4 17.6C15.62 17.8207 15.73 18.0887 15.73 18.404C15.73 18.4733 15.7273 18.5377 15.722 18.597C15.7167 18.6563 15.697 18.715 15.663 18.773L18.865 20.058L21.836 16.013C21.6913 15.9183 21.5767 15.793 21.492 15.637C21.4073 15.4817 21.365 15.314 21.365 15.134C21.365 14.8193 21.4753 14.5517 21.696 14.331C21.916 14.1103 22.1837 14 22.499 14C22.8137 14 23.0817 14.11 23.303 14.33C23.5243 14.55 23.635 14.8167 23.635 15.13C23.635 15.3193 23.5927 15.49 23.508 15.642C23.4233 15.7953 23.3087 15.919 23.164 16.013L26.134 20.058L29.337 18.773C29.319 18.7197 29.3033 18.6613 29.29 18.598C29.2767 18.534 29.27 18.4693 29.27 18.404C29.27 18.0887 29.374 17.8207 29.582 17.6C29.79 17.38 30.0513 17.27 30.366 17.27C30.6807 17.27 30.9483 17.38 31.169 17.6C31.3897 17.8207 31.5 18.0887 31.5 18.404C31.5 18.7067 31.3893 18.965 31.168 19.179C30.9467 19.393 30.678 19.5 30.362 19.5C30.3367 19.5 30.308 19.496 30.276 19.488C30.244 19.48 30.2093 19.4757 30.172 19.475L28.731 27.115L16.269 27.116Z" fill="white"/>
</svg>
