<svg width="24" height="24" viewBox="0 0 24 24" fill="none" xmlns="http://www.w3.org/2000/svg">
<path d="M5.827 19V18H18.173V19H5.827ZM5.769 16.116L4.321 8.475C4.28767 8.48833 4.25033 8.49567 4.209 8.497C4.167 8.499 4.12933 8.5 4.096 8.5C3.782 8.5 3.521 8.39333 3.313 8.18C3.105 7.96667 3.00067 7.708 3 7.404C3 7.08867 3.10433 6.82067 3.313 6.6C3.521 6.38 3.78233 6.27 4.097 6.27C4.41167 6.27 4.67933 6.38 4.9 6.6C5.12 6.82067 5.23 7.08867 5.23 7.404C5.23 7.47333 5.22733 7.53767 5.222 7.597C5.21667 7.65633 5.197 7.715 5.163 7.773L8.365 9.058L11.336 5.013C11.1913 4.91833 11.0767 4.793 10.992 4.637C10.9073 4.48167 10.865 4.314 10.865 4.134C10.865 3.81933 10.9753 3.55167 11.196 3.331C11.416 3.11033 11.6837 3 11.999 3C12.3137 3 12.5817 3.11 12.803 3.33C13.0243 3.55 13.135 3.81667 13.135 4.13C13.135 4.31933 13.0927 4.49 13.008 4.642C12.9233 4.79533 12.8087 4.919 12.664 5.013L15.634 9.058L18.837 7.773C18.819 7.71967 18.8033 7.66133 18.79 7.598C18.7767 7.534 18.77 7.46933 18.77 7.404C18.77 7.08867 18.874 6.82067 19.082 6.6C19.29 6.38 19.5513 6.27 19.866 6.27C20.1807 6.27 20.4483 6.38 20.669 6.6C20.8897 6.82067 21 7.08867 21 7.404C21 7.70667 20.8893 7.965 20.668 8.179C20.4467 8.393 20.178 8.5 19.862 8.5C19.8367 8.5 19.808 8.496 19.776 8.488C19.744 8.48 19.7093 8.47567 19.672 8.475L18.231 16.115L5.769 16.116Z" fill="#F6D901"/>
</svg>
