<svg width="15" height="16" viewBox="0 0 15 16" fill="none" xmlns="http://www.w3.org/2000/svg">
<path d="M13.875 14.3749L10.7987 11.2986M10.7987 11.2986C11.3249 10.7724 11.7423 10.1477 12.0271 9.46016C12.3119 8.77263 12.4585 8.03575 12.4585 7.29157C12.4585 6.54739 12.3119 5.8105 12.0271 5.12297C11.7423 4.43544 11.3249 3.81074 10.7987 3.28453C10.2725 2.75831 9.64779 2.3409 8.96026 2.05612C8.27273 1.77133 7.53584 1.62476 6.79166 1.62476C6.04748 1.62476 5.31059 1.77133 4.62306 2.05612C3.93554 2.3409 3.31083 2.75831 2.78462 3.28453C1.72188 4.34726 1.12485 5.78864 1.12485 7.29157C1.12485 8.7945 1.72188 10.2359 2.78462 11.2986C3.84735 12.3613 5.28873 12.9584 6.79166 12.9584C8.29459 12.9584 9.73597 12.3613 10.7987 11.2986Z" stroke="#A6A6A6" stroke-width="2" stroke-linecap="round" stroke-linejoin="round"/>
</svg>
