<svg width="20" height="20" viewBox="0 0 20 20" fill="none" xmlns="http://www.w3.org/2000/svg">
<path d="M10 1.99991C9.73481 1.99991 9.48046 2.10526 9.29292 2.2928C9.10539 2.48034 9.00003 2.73469 9.00003 2.99991C9.00003 4.69191 6.95403 5.53991 5.75703 4.34291C5.66478 4.2474 5.55444 4.17121 5.43243 4.1188C5.31043 4.0664 5.17921 4.03881 5.04643 4.03766C4.91365 4.0365 4.78197 4.0618 4.65907 4.11208C4.53618 4.16237 4.42453 4.23662 4.33063 4.33051C4.23674 4.4244 4.16249 4.53606 4.11221 4.65895C4.06193 4.78185 4.03662 4.91353 4.03778 5.04631C4.03893 5.17909 4.06652 5.31031 4.11893 5.43231C4.17134 5.55432 4.24752 5.66466 4.34303 5.75691C5.54003 6.95391 4.69303 8.99991 3.00003 8.99991C2.73481 8.99991 2.48046 9.10526 2.29292 9.2928C2.10539 9.48034 2.00003 9.73469 2.00003 9.99991C2.00003 10.2651 2.10539 10.5195 2.29292 10.707C2.48046 10.8945 2.73481 10.9999 3.00003 10.9999C4.69203 10.9999 5.54003 13.0459 4.34303 14.2429C4.16087 14.4315 4.06008 14.6841 4.06235 14.9463C4.06463 15.2085 4.1698 15.4593 4.35521 15.6447C4.54062 15.8301 4.79143 15.9353 5.05363 15.9376C5.31582 15.9399 5.56843 15.8391 5.75703 15.6569C6.95403 14.4599 9.00003 15.3069 9.00003 16.9999C9.00003 17.2651 9.10539 17.5195 9.29292 17.707C9.48046 17.8946 9.73481 17.9999 10 17.9999C10.2652 17.9999 10.5196 17.8946 10.7071 17.707C10.8947 17.5195 11 17.2651 11 16.9999C11 15.3079 13.046 14.4599 14.243 15.6569C14.3353 15.7524 14.4456 15.8286 14.5676 15.881C14.6896 15.9334 14.8208 15.961 14.9536 15.9622C15.0864 15.9633 15.2181 15.938 15.341 15.8877C15.4639 15.8374 15.5755 15.7632 15.6694 15.6693C15.7633 15.5754 15.8376 15.4638 15.8878 15.3409C15.9381 15.218 15.9634 15.0863 15.9623 14.9535C15.9611 14.8207 15.9335 14.6895 15.8811 14.5675C15.8287 14.4455 15.7525 14.3352 15.657 14.2429C14.46 13.0459 15.307 10.9999 17 10.9999C17.2652 10.9999 17.5196 10.8945 17.7071 10.707C17.8947 10.5195 18 10.2651 18 9.99991C18 9.73469 17.8947 9.48034 17.7071 9.2928C17.5196 9.10526 17.2652 8.99991 17 8.99991C15.308 8.99991 14.46 6.95391 15.657 5.75691C15.8392 5.5683 15.94 5.3157 15.9377 5.05351C15.9354 4.79131 15.8303 4.5405 15.6448 4.35509C15.4594 4.16968 15.2086 4.06451 14.9464 4.06223C14.6842 4.05995 14.4316 4.16075 14.243 4.34291C13.046 5.53991 11 4.69291 11 2.99991C11 2.73469 10.8947 2.48034 10.7071 2.2928C10.5196 2.10526 10.2652 1.99991 10 1.99991ZM7.00803 2.77691C7.06333 2.02118 7.40257 1.31437 7.95758 0.798484C8.5126 0.282597 9.24228 -0.00415039 10 -0.00415039C10.7578 -0.00415039 11.4875 0.282597 12.0425 0.798484C12.5975 1.31437 12.9367 2.02118 12.992 2.77691C13.5658 2.28409 14.3046 2.02621 15.0605 2.05491C15.8163 2.08361 16.5334 2.39677 17.0682 2.93168C17.603 3.4666 17.916 4.18378 17.9445 4.93963C17.973 5.69548 17.715 6.43421 17.222 7.00791C17.9778 7.06308 18.6846 7.4022 19.2006 7.95713C19.7166 8.51206 20.0035 9.24169 20.0036 9.99944C20.0037 10.7572 19.7171 11.4869 19.2013 12.042C18.6855 12.5971 17.9787 12.9365 17.223 12.9919C17.7158 13.5657 17.9737 14.3045 17.945 15.0604C17.9163 15.8162 17.6032 16.5333 17.0683 17.0681C16.5333 17.6029 15.8162 17.9159 15.0603 17.9444C14.3045 17.9729 13.5657 17.7149 12.992 17.2219C12.9367 17.9776 12.5975 18.6844 12.0425 19.2003C11.4875 19.7162 10.7578 20.003 10 20.003C9.24228 20.003 8.5126 19.7162 7.95758 19.2003C7.40257 18.6844 7.06333 17.9776 7.00803 17.2219C6.43434 17.7149 5.69561 17.9729 4.93975 17.9444C4.1839 17.9159 3.46672 17.6029 2.93181 17.0681C2.39689 16.5333 2.08374 15.8162 2.05504 15.0604C2.02634 14.3045 2.28421 13.5657 2.77703 12.9919C2.0213 12.9366 1.31449 12.5974 0.798606 12.0424C0.282719 11.4873 -0.00402832 10.7577 -0.00402832 9.99991C-0.00402832 9.24216 0.282719 8.51248 0.798606 7.95746C1.31449 7.40244 2.0213 7.06321 2.77703 7.00791C2.28271 6.43431 2.02358 5.69501 2.05162 4.93832C2.07967 4.18164 2.39282 3.46355 2.92824 2.92812C3.46367 2.39269 4.18176 2.07955 4.93845 2.0515C5.69513 2.02345 6.43444 2.28259 7.00803 2.77691Z" fill="#6D6D6D"/>
<path d="M10 7.99984C9.46961 7.99984 8.9609 8.21055 8.58583 8.58562C8.21076 8.9607 8.00004 9.4694 8.00004 9.99984C8.00004 10.5303 8.21076 11.039 8.58583 11.414C8.9609 11.7891 9.46961 11.9998 10 11.9998C10.5305 11.9998 11.0392 11.7891 11.4143 11.414C11.7893 11.039 12 10.5303 12 9.99984C12 9.4694 11.7893 8.9607 11.4143 8.58562C11.0392 8.21055 10.5305 7.99984 10 7.99984ZM7.17204 7.17184C7.54103 6.7898 7.98241 6.48507 8.47042 6.27543C8.95844 6.0658 9.48332 5.95545 10.0144 5.95083C10.5456 5.94622 11.0723 6.04743 11.5639 6.24855C12.0554 6.44967 12.5021 6.74669 12.8776 7.12226C13.2532 7.49783 13.5502 7.94443 13.7513 8.43602C13.9525 8.92761 14.0537 9.45432 14.049 9.98544C14.0444 10.5166 13.9341 11.0414 13.7244 11.5295C13.5148 12.0175 13.2101 12.4588 12.828 12.8278C12.0736 13.5565 11.0632 13.9596 10.0144 13.9505C8.96565 13.9414 7.9624 13.5207 7.22077 12.7791C6.47914 12.0375 6.05846 11.0342 6.04935 9.98544C6.04023 8.93665 6.44341 7.92624 7.17204 7.17184Z" fill="#6D6D6D"/>
</svg>
