<svg width="10" height="10" viewBox="0 0 10 10" fill="none" xmlns="http://www.w3.org/2000/svg">
<mask id="mask0_282_2210" style="mask-type:alpha" maskUnits="userSpaceOnUse" x="0" y="0" width="10" height="10">
<rect width="10" height="10" fill="#D9D9D9"/>
</mask>
<g mask="url(#mask0_282_2210)">
<path d="M4.99993 8.33301C4.6666 8.06912 4.30549 7.86426 3.9166 7.71842C3.52771 7.57259 3.12493 7.49967 2.70826 7.49967C2.4166 7.49967 2.13014 7.53787 1.84889 7.61426C1.56764 7.69065 1.29854 7.79829 1.0416 7.93717C0.895762 8.01356 0.755137 8.01009 0.61972 7.92676C0.484304 7.84342 0.416595 7.7219 0.416595 7.56217V2.54134C0.416595 2.46495 0.435693 2.39204 0.473887 2.32259C0.512082 2.25315 0.569373 2.20106 0.645762 2.16634C0.965207 1.99967 1.29854 1.87467 1.64576 1.79134C1.99298 1.70801 2.34715 1.66634 2.70826 1.66634C3.11104 1.66634 3.50514 1.71842 3.89055 1.82259C4.27597 1.92676 4.64576 2.08301 4.99993 2.29134V7.33301C5.3541 7.11079 5.72562 6.94412 6.11451 6.83301C6.5034 6.7219 6.89576 6.66634 7.2916 6.66634C7.5416 6.66634 7.78639 6.68717 8.02597 6.72884C8.26555 6.77051 8.50687 6.83301 8.74993 6.91634V1.91634C8.8541 1.95106 8.95653 1.98752 9.05722 2.02572C9.15792 2.06391 9.25688 2.11079 9.3541 2.16634C9.43049 2.20106 9.48778 2.25315 9.52597 2.32259C9.56417 2.39204 9.58326 2.46495 9.58326 2.54134V7.56217C9.58326 7.7219 9.51556 7.84342 9.38014 7.92676C9.24472 8.01009 9.1041 8.01356 8.95826 7.93717C8.70132 7.79829 8.43222 7.69065 8.15097 7.61426C7.86972 7.53787 7.58326 7.49967 7.2916 7.49967C6.87493 7.49967 6.47215 7.57259 6.08326 7.71842C5.69437 7.86426 5.33326 8.06912 4.99993 8.33301ZM5.83326 6.24967V2.29134L7.9166 0.208008V4.37467L5.83326 6.24967ZM4.1666 6.92676V2.80176C3.93743 2.70454 3.69958 2.62988 3.45305 2.5778C3.20653 2.52572 2.95826 2.49967 2.70826 2.49967C2.45132 2.49967 2.20132 2.52398 1.95826 2.57259C1.71521 2.6212 1.4791 2.69412 1.24993 2.79134V6.92676C1.49298 6.83648 1.7343 6.77051 1.97389 6.72884C2.21347 6.68717 2.45826 6.66634 2.70826 6.66634C2.95826 6.66634 3.20305 6.68717 3.44264 6.72884C3.68222 6.77051 3.92354 6.83648 4.1666 6.92676Z" fill="#222222"/>
</g>
</svg>
