<svg width="10" height="11" viewBox="0 0 10 11" fill="none" xmlns="http://www.w3.org/2000/svg">
<path d="M4.58333 2.4591C4.58324 2.40106 4.56597 2.34435 4.53369 2.29612C4.5014 2.24789 4.45556 2.21031 4.40193 2.18811C4.34831 2.16591 4.28931 2.16009 4.23239 2.17139C4.17546 2.18269 4.12316 2.2106 4.08208 2.2516L2.67208 3.66118C2.61766 3.71592 2.55293 3.75932 2.48162 3.78886C2.41031 3.8184 2.33385 3.83349 2.25666 3.83326H1.24999C1.13949 3.83326 1.03351 3.87716 0.955367 3.9553C0.877227 4.03344 0.833328 4.13942 0.833328 4.24993V6.74993C0.833328 6.86044 0.877227 6.96642 0.955367 7.04456C1.03351 7.1227 1.13949 7.1666 1.24999 7.1666H2.25666C2.33385 7.16637 2.41031 7.18147 2.48162 7.211C2.55293 7.24054 2.61766 7.28394 2.67208 7.33868L4.08166 8.74868C4.12274 8.78985 4.17512 8.81789 4.23216 8.82926C4.28919 8.84062 4.34832 8.83481 4.40205 8.81254C4.45577 8.79027 4.50168 8.75256 4.53395 8.70418C4.56623 8.65579 4.58341 8.59892 4.58333 8.54076V2.4591Z" stroke="#2F2824" stroke-width="1.33333" stroke-linecap="round" stroke-linejoin="round"/>
<path d="M6.66667 4.25C6.93713 4.61062 7.08334 5.04923 7.08334 5.5C7.08334 5.95077 6.93713 6.38938 6.66667 6.75" stroke="#2F2824" stroke-width="1.33333" stroke-linecap="round" stroke-linejoin="round"/>
<path d="M8.06833 8.15172C8.41655 7.8035 8.69278 7.3901 8.88124 6.93513C9.0697 6.48015 9.16669 5.99252 9.16669 5.50006C9.16669 5.00759 9.0697 4.51996 8.88124 4.06498C8.69278 3.61001 8.41655 3.19661 8.06833 2.84839" stroke="#2F2824" stroke-width="1.33333" stroke-linecap="round" stroke-linejoin="round"/>
</svg>
