<svg width="10" height="10" viewBox="0 0 10 10" fill="none" xmlns="http://www.w3.org/2000/svg">
<mask id="mask0_282_1107" style="mask-type:alpha" maskUnits="userSpaceOnUse" x="0" y="0" width="10" height="10">
<rect width="10" height="10" fill="#D9D9D9"/>
</mask>
<g mask="url(#mask0_282_1107)">
<path d="M3.17712 2.66585L4.34379 1.15544C4.42712 1.04433 4.52608 0.962728 4.64067 0.910645C4.75525 0.858561 4.87504 0.83252 5.00004 0.83252C5.12504 0.83252 5.24483 0.858561 5.35942 0.910645C5.474 0.962728 5.57296 1.04433 5.65629 1.15544L6.82296 2.66585L8.59379 3.2596C8.77435 3.31516 8.91671 3.41759 9.02087 3.56689C9.12504 3.7162 9.17712 3.88113 9.17712 4.06169C9.17712 4.14502 9.16497 4.22835 9.14067 4.31169C9.11636 4.39502 9.07643 4.47488 9.02087 4.55127L7.87504 6.17627L7.91671 7.8846C7.92365 8.12766 7.84379 8.33252 7.67712 8.49918C7.51046 8.66585 7.31601 8.74919 7.09379 8.74919C7.0799 8.74919 7.00351 8.73877 6.86462 8.71794L5.00004 8.1971L3.13546 8.71794C3.10073 8.73182 3.06254 8.7405 3.02087 8.74398C2.97921 8.74745 2.94101 8.74919 2.90629 8.74919C2.68407 8.74919 2.48962 8.66585 2.32296 8.49918C2.15629 8.33252 2.07643 8.12766 2.08337 7.8846L2.12504 6.16585L0.989624 4.55127C0.934068 4.47488 0.894138 4.39502 0.869832 4.31169C0.845527 4.22835 0.833374 4.14502 0.833374 4.06169C0.833374 3.88807 0.883721 3.72662 0.984416 3.57731C1.08511 3.42801 1.22574 3.3221 1.40629 3.2596L3.17712 2.66585Z" fill="white"/>
</g>
</svg>
