<svg width="10" height="10" viewBox="0 0 10 10" fill="none" xmlns="http://www.w3.org/2000/svg">
<path d="M4.80208 1.45637C4.82034 1.41948 4.84855 1.38842 4.88352 1.36671C4.91849 1.345 4.95883 1.3335 5 1.3335C5.04116 1.3335 5.0815 1.345 5.11648 1.36671C5.15145 1.38842 5.17965 1.41948 5.19791 1.45637L6.16041 3.40595C6.22382 3.53427 6.31742 3.64529 6.43317 3.72947C6.54893 3.81366 6.68338 3.8685 6.825 3.88929L8.9775 4.20429C9.01828 4.2102 9.0566 4.2274 9.08812 4.25395C9.11964 4.28051 9.14309 4.31535 9.15584 4.35454C9.16859 4.39373 9.17011 4.43571 9.16024 4.47572C9.15037 4.51573 9.12951 4.55218 9.1 4.58095L7.54333 6.09679C7.44067 6.19683 7.36386 6.32032 7.31951 6.45663C7.27516 6.59294 7.26461 6.73799 7.28875 6.87929L7.65625 9.02095C7.66345 9.06172 7.65904 9.10369 7.64354 9.14207C7.62803 9.18046 7.60205 9.21371 7.56856 9.23804C7.53506 9.26236 7.49541 9.27679 7.45411 9.27966C7.41281 9.28253 7.37154 9.27374 7.335 9.25429L5.41083 8.24262C5.28405 8.17605 5.14299 8.14127 4.99979 8.14127C4.85659 8.14127 4.71553 8.17605 4.58875 8.24262L2.665 9.25429C2.62847 9.27362 2.58725 9.28232 2.54602 9.27939C2.50479 9.27646 2.46521 9.26202 2.43179 9.23771C2.39836 9.2134 2.37243 9.1802 2.35694 9.14188C2.34145 9.10356 2.33702 9.06166 2.34416 9.02095L2.71125 6.8797C2.7355 6.73834 2.72499 6.5932 2.68064 6.45681C2.63629 6.32041 2.55942 6.19685 2.45666 6.09679L0.899997 4.58137C0.870245 4.55263 0.849161 4.51612 0.839148 4.47598C0.829135 4.43585 0.830596 4.39371 0.843363 4.35437C0.856131 4.31502 0.879692 4.28005 0.911362 4.25345C0.943033 4.22684 0.98154 4.20966 1.0225 4.20387L3.17458 3.88929C3.31635 3.86866 3.45099 3.81389 3.56691 3.7297C3.68282 3.6455 3.77654 3.5344 3.84 3.40595L4.80208 1.45637Z" stroke="#2F2824" stroke-width="1.33333" stroke-linecap="round" stroke-linejoin="round"/>
</svg>
