<svg width="11" height="11" viewBox="0 0 11 11" fill="none" xmlns="http://www.w3.org/2000/svg">
<path d="M2.75 3.66675C2.75 2.9374 3.03973 2.23793 3.55546 1.7222C4.07118 1.20648 4.77065 0.916748 5.5 0.916748C6.22935 0.916748 6.92882 1.20648 7.44454 1.7222C7.96027 2.23793 8.25 2.9374 8.25 3.66675C8.25 6.87508 9.625 7.79175 9.625 7.79175H1.375C1.375 7.79175 2.75 6.87508 2.75 3.66675Z" stroke="#333333" stroke-width="1.66667" stroke-linecap="round" stroke-linejoin="round"/>
<path d="M4.72083 9.625C4.79755 9.76454 4.91033 9.88091 5.04739 9.96196C5.18445 10.043 5.34077 10.0858 5.5 10.0858C5.65923 10.0858 5.81555 10.043 5.95261 9.96196C6.08967 9.88091 6.20245 9.76454 6.27917 9.625" stroke="#333333" stroke-width="1.66667" stroke-linecap="round" stroke-linejoin="round"/>
</svg>
