<svg width="10" height="10" viewBox="0 0 10 10" fill="none" xmlns="http://www.w3.org/2000/svg">
<mask id="mask0_282_1110" style="mask-type:alpha" maskUnits="userSpaceOnUse" x="0" y="0" width="10" height="10">
<rect width="10" height="10" fill="#D9D9D9"/>
</mask>
<g mask="url(#mask0_282_1110)">
<path d="M5.83333 8.63627V7.7821C6.45833 7.60155 6.96181 7.25433 7.34375 6.74044C7.72569 6.22655 7.91667 5.64321 7.91667 4.99044C7.91667 4.33766 7.72569 3.75433 7.34375 3.24044C6.96181 2.72655 6.45833 2.37933 5.83333 2.19877V1.3446C6.69444 1.53905 7.39583 1.97481 7.9375 2.6519C8.47917 3.32898 8.75 4.10849 8.75 4.99044C8.75 5.87238 8.47917 6.6519 7.9375 7.32898C7.39583 8.00606 6.69444 8.44183 5.83333 8.63627ZM1.25 6.25085V3.75085H2.91667L5 1.66752V8.33419L2.91667 6.25085H1.25ZM5.83333 6.66752V3.31335C6.15972 3.46613 6.41493 3.6953 6.59896 4.00085C6.78299 4.30641 6.875 4.63974 6.875 5.00085C6.875 5.35502 6.78299 5.68315 6.59896 5.98523C6.41493 6.28731 6.15972 6.51474 5.83333 6.66752ZM4.16667 3.68835L3.27083 4.58419H2.08333V5.41752H3.27083L4.16667 6.31335V3.68835Z" fill="white"/>
</g>
</svg>
