<svg width="18" height="19" viewBox="0 0 18 19" fill="none" xmlns="http://www.w3.org/2000/svg">
<mask id="mask0_282_2250" style="mask-type:alpha" maskUnits="userSpaceOnUse" x="0" y="0" width="18" height="19">
<rect y="0.5" width="18" height="18" fill="#D9D9D9"/>
</mask>
<g mask="url(#mask0_282_2250)">
<path d="M10.5 16.0454V14.5079C11.625 14.1829 12.5312 13.5579 13.2188 12.6329C13.9062 11.7079 14.25 10.6579 14.25 9.48291C14.25 8.30791 13.9062 7.25791 13.2188 6.33291C12.5312 5.40791 11.625 4.78291 10.5 4.45791V2.92041C12.05 3.27041 13.3125 4.05479 14.2875 5.27354C15.2625 6.49229 15.75 7.89541 15.75 9.48291C15.75 11.0704 15.2625 12.4735 14.2875 13.6923C13.3125 14.911 12.05 15.6954 10.5 16.0454ZM2.25 11.7517V7.25166H5.25L9 3.50166V15.5017L5.25 11.7517H2.25ZM10.5 12.5017V6.46416C11.0875 6.73916 11.5469 7.15166 11.8781 7.70166C12.2094 8.25166 12.375 8.85166 12.375 9.50166C12.375 10.1392 12.2094 10.7298 11.8781 11.2735C11.5469 11.8173 11.0875 12.2267 10.5 12.5017ZM7.5 7.13916L5.8875 8.75166H3.75V10.2517H5.8875L7.5 11.8642V7.13916Z" fill="#2C313A"/>
</g>
</svg>
